HIERARCHY
ROOT joint_0
{
	OFFSET 0.000000 0.000000 0.000000
	CHANNELS 6 Xposition Yposition Zposition Zrotation Yrotation Xrotation 
	JOINT joint_1
	{
		OFFSET 0.000000 0.000000 0.000000
		CHANNELS 3 Zrotation Yrotation Xrotation
		JOINT joint_2
		{
			OFFSET 3.811170 -8.520760 0.839290
			CHANNELS 3 Zrotation Yrotation Xrotation
			JOINT joint_3
			{
				OFFSET 2.562200 -7.039590 0.000000
				CHANNELS 3 Zrotation Yrotation Xrotation
				JOINT joint_4
				{
					OFFSET 0.157640 -0.433110 2.322550
					CHANNELS 3 Zrotation Yrotation Xrotation
					End Site
					{
						OFFSET 0.000000 0.000000 0.000000
					}
				}
			}
		}
	}
	JOINT joint_5
	{
		OFFSET 0.000000 0.000000 0.000000
		CHANNELS 3 Zrotation Yrotation Xrotation
		JOINT joint_6
		{
			OFFSET -3.848050 -8.780180 0.839290
			CHANNELS 3 Zrotation Yrotation Xrotation
			JOINT joint_7
			{
				OFFSET -2.568260 -7.056230 0.000000
				CHANNELS 3 Zrotation Yrotation Xrotation
				JOINT joint_8
				{
					OFFSET -0.164730 -0.452590 2.363150
					CHANNELS 3 Zrotation Yrotation Xrotation
					End Site
					{
						OFFSET 0.000000 0.000000 0.000000
					}
				}
			}
		}
	}
	JOINT joint_9
	{
		OFFSET 0.028270 2.035590 -0.193380
		CHANNELS 3 Zrotation Yrotation Xrotation
		JOINT joint_10
		{
			OFFSET 0.056720 2.048850 -0.042750
			CHANNELS 3 Zrotation Yrotation Xrotation
			JOINT joint_11
			{
				OFFSET -0.054170 1.746240 0.172020
				CHANNELS 3 Zrotation Yrotation Xrotation
				JOINT joint_12
				{
					OFFSET 0.104070 1.761360 -0.123970
					CHANNELS 3 Zrotation Yrotation Xrotation
					End Site
					{
						OFFSET 0.000000 0.000000 0.000000
					}
				}
			}
			JOINT joint_13
			{
				OFFSET 3.362410 1.200890 -0.311210
				CHANNELS 3 Zrotation Yrotation Xrotation
				JOINT joint_14
				{
					OFFSET 4.983000 -0.000000 -0.000000
					CHANNELS 3 Zrotation Yrotation Xrotation
					JOINT joint_15
					{
						OFFSET 3.483560 -0.000000 -0.000000
						CHANNELS 3 Zrotation Yrotation Xrotation
						JOINT joint_16
						{
							OFFSET 0.715260 -0.000000 -0.000000
							CHANNELS 3 Zrotation Yrotation Xrotation
							End Site
							{
								OFFSET 0.000000 0.000000 0.000000
							}
						}
					}
				}
			}
			JOINT joint_17
			{
				OFFSET -3.136600 1.374050 -0.404650
				CHANNELS 3 Zrotation Yrotation Xrotation
				JOINT joint_18
				{
					OFFSET -5.241900 -0.000000 -0.000000
					CHANNELS 3 Zrotation Yrotation Xrotation
					JOINT joint_19
					{
						OFFSET -3.444170 -0.000000 -0.000000
						CHANNELS 3 Zrotation Yrotation Xrotation
						JOINT joint_20
						{
							OFFSET -0.622530 -0.000000 -0.000000
							CHANNELS 3 Zrotation Yrotation Xrotation
							End Site
							{
								OFFSET 0.000000 0.000000 0.000000
							}
						}
					}
				}
			}
		}
	}
}
MOTION
Frames: 7
Frame Time: 0.031667
-2.459858 14.507683 5.742495 170.276443 -42.221558 178.379807 -53.168385 -19.618675 -35.581382 -15.382305 1.414724 13.396012 -44.976700 4.396030 -10.636977 3.440456 -2.226073 -10.540488 -18.790257 -10.156896 11.881896 76.403070 -8.661213 -11.695827 30.953441 -7.541199 -82.874879 -1.857033 1.714476 -3.550167 -13.258140 4.813861 6.715220 -9.717647 2.893679 -0.861669 -0.415316 -3.378021 -2.937486 1.308919 -0.407839 2.381854 -58.586877 -1.779126 -6.920551 16.320699 -57.209367 -7.443413 1.895793 -5.055991 14.512315 -6.795138 -0.038001 -0.042763 108.639985 16.822068 55.865873 106.451635 85.682396 55.334376 -0.056529 2.875372 5.680177 6.915469 0.055544 -0.045312 
-2.618448 14.527208 5.658350 170.375656 -37.557163 178.634201 -50.736622 -20.822880 -34.263002 -24.414388 3.935141 15.890380 -40.842243 -0.585868 -6.051460 4.062250 -3.214143 -12.833528 -32.152484 -14.545766 5.296071 72.322769 -7.287138 -8.551996 36.110391 -6.167478 -97.513347 -2.407909 2.099343 -3.880766 -3.540102 10.670562 -2.879863 10.882618 -1.333124 -0.902265 3.034492 -1.851499 -3.668075 2.978565 0.162815 1.386983 -52.325652 -0.589122 -6.362679 13.633436 -56.694562 1.859149 6.473447 -3.330342 8.316029 -6.851939 -0.055507 -0.097555 103.673433 12.706508 50.231926 134.033486 85.383377 90.841135 4.394011 2.610712 3.629481 6.961069 0.037817 -0.052550 
-2.764054 14.545231 5.564871 170.413406 -32.941769 178.892181 -51.171921 -13.468574 -41.319018 -11.878924 5.033816 15.910019 -59.749101 3.136732 -8.879213 4.883602 -5.507327 -19.709727 -21.272423 -16.265074 5.049101 82.863971 -11.087099 -6.801523 29.286492 -1.864685 -91.332900 -2.873247 2.510174 -4.798903 -3.706006 10.816983 11.702769 0.121486 4.640124 -2.557567 5.764225 0.929244 -6.367541 2.883577 0.277672 -0.074037 -52.374475 2.920382 -12.528790 25.607086 -71.527401 -15.687107 7.568503 -4.216145 3.174635 -6.903490 -0.043699 -0.129270 98.932435 15.489259 57.655580 -35.413185 87.080670 -97.668297 -6.689367 0.091452 -7.223294 7.008413 0.017804 -0.058709 
-2.906213 14.562422 5.467940 170.488632 -28.315804 179.197021 -44.483574 -16.719463 -42.769763 -12.093664 7.007168 23.672218 -35.981908 0.967027 -5.015458 5.327276 -5.727374 -20.390036 -23.844457 -13.702375 7.568789 83.633399 -13.514036 -13.895823 32.346560 -6.189647 -101.103370 -2.827008 2.302641 -4.336350 -6.447656 4.332232 -2.707886 6.829631 -6.836593 -5.549071 15.298044 -3.130073 8.787588 1.373405 -0.307737 -1.886794 -49.411515 -1.509983 -1.082775 24.517196 -72.398926 -10.268073 3.856608 -2.428627 11.298646 -6.911521 -0.049655 -0.152505 89.970687 13.210043 40.533095 165.931552 88.950928 81.852395 -2.678517 5.901452 -9.665462 7.043546 0.018263 -0.053106 
-3.037075 14.576888 5.359700 170.548111 -23.823706 179.467407 -49.936978 -11.345442 -61.421145 -6.208550 4.283172 21.867631 -29.871771 -3.884383 5.784425 5.671100 -4.418676 -16.601746 -14.768647 -19.682992 8.077660 80.843068 -9.375949 -21.688627 32.568005 -3.531455 -101.906634 -2.686751 2.175580 -4.338055 -2.191877 15.545357 5.905103 -2.229292 2.379798 1.513562 4.292058 4.855267 4.893298 0.817812 -0.477940 -1.851049 -33.122200 -2.654261 -7.590852 22.628598 -88.106449 2.174208 13.418105 -3.752842 3.447184 -6.953521 -0.067084 -0.201448 79.925863 25.503134 41.835038 148.180881 77.739583 113.844543 0.913071 5.271654 -15.429802 7.074833 0.013360 -0.053180 
-3.164959 14.590025 5.247998 170.648514 -19.354546 179.764572 -35.859501 -18.136167 -64.549516 -16.393745 17.766575 28.328515 -54.322943 -13.105874 -3.659790 5.834284 -2.035864 -9.402525 -20.650515 -14.930739 18.092433 100.089667 -18.656044 -15.913038 42.778738 -14.567793 -86.542677 -2.085962 1.722053 -3.283744 -12.972370 11.805588 5.226889 -4.620328 0.715627 -5.894463 2.112315 -5.209056 1.369477 3.113237 -0.772825 -0.321277 -22.418513 -9.781941 -32.105799 -157.955624 -87.420467 175.026492 2.414034 -0.725327 1.449323 -7.016951 -0.101221 -0.221785 69.235715 28.237288 46.763464 146.952212 74.619709 116.060953 0.669549 5.283555 -23.537078 7.170450 -0.033160 -0.054703 
-3.282469 14.598531 5.124234 170.778320 -15.053505 -179.976471 -31.338294 -19.256918 -48.579068 -10.049887 14.169891 37.181129 -45.242719 -9.557827 -8.424498 5.858449 0.472170 -1.298537 -25.751610 -8.997321 8.996343 72.917802 -21.484915 1.435073 38.731762 -6.853037 -101.188064 -1.824093 0.878828 -0.590261 -1.936500 14.069193 5.078822 -4.449797 4.673657 -0.737712 -1.997346 -3.151198 7.028143 5.090181 -1.093129 3.354151 11.838248 -13.950305 -51.094524 -156.483126 -89.421542 -176.495767 5.689564 3.753729 8.395906 -6.986367 -0.117722 -0.267954 59.163843 32.417451 25.728307 98.105294 61.890552 94.258136 -9.542271 4.139287 -13.597678 7.167396 -0.041912 -0.077487 
